# WaveFront *.obj file (generated by Autodesk ATF)

mtllib bodyCorrected.mtl

g Solid1

v -60.000000 -70.000000 0.000000
v -60.000000 -70.000000 110.000000
v -60.000000 0.000000 110.000000
v -60.000000 6.717868 109.622736
v -60.000000 13.351256 108.495674
v -60.000000 19.816743 106.632996
v -60.000000 26.033025 104.058132
v -60.000000 31.921926 100.803452
v -60.000000 37.409389 96.909885
v -60.000000 42.426405 92.426405
v -60.000000 46.909890 87.409391
v -60.000000 50.803452 81.921921
v -60.000000 54.058132 76.033025
v -60.000000 56.633000 69.816742
v -60.000000 58.495674 63.351254
v -60.000000 59.622731 56.717868
v -60.000000 60.000000 0.000000
v -60.000000 60.000000 50.000000
v -50.000000 -60.000000 10.000000
v -50.000000 -60.000000 110.000000
v -50.000000 0.000000 110.000000
v -50.000000 6.717868 109.622736
v -50.000000 13.351256 108.495674
v -50.000000 19.816743 106.632996
v -50.000000 26.033025 104.058132
v -50.000000 31.921926 100.803452
v -50.000000 37.409389 96.909885
v -50.000000 42.426405 92.426405
v -50.000000 46.909890 87.409391
v -50.000000 50.803452 81.921921
v -50.000000 54.058132 76.033025
v -50.000000 56.633000 69.816742
v -50.000000 58.495674 63.351254
v -50.000000 59.622731 56.717868
v -50.000000 60.000000 10.000000
v -50.000000 60.000000 50.000000
v 50.000000 -60.000000 10.000000
v 50.000000 -60.000000 110.000000
v 50.000000 0.000000 110.000000
v 50.000000 6.717868 109.622736
v 50.000000 13.351256 108.495674
v 50.000000 19.816743 106.632996
v 50.000000 26.033025 104.058132
v 50.000000 31.921926 100.803452
v 50.000000 37.409389 96.909885
v 50.000000 42.426405 92.426405
v 50.000000 46.909890 87.409391
v 50.000000 50.803452 81.921921
v 50.000000 54.058132 76.033025
v 50.000000 56.633000 69.816742
v 50.000000 58.495674 63.351254
v 50.000000 59.622731 56.717868
v 50.000000 60.000000 10.000000
v 50.000000 60.000000 50.000000
v 60.000000 -70.000000 0.000000
v 60.000000 -70.000000 110.000000
v 60.000000 0.000000 110.000000
v 60.000000 6.717868 109.622736
v 60.000000 13.351256 108.495674
v 60.000000 19.816743 106.632996
v 60.000000 26.033025 104.058132
v 60.000000 31.921926 100.803452
v 60.000000 37.409389 96.909885
v 60.000000 42.426405 92.426405
v 60.000000 46.909890 87.409391
v 60.000000 50.803452 81.921921
v 60.000000 54.058132 76.033025
v 60.000000 56.633000 69.816742
v 60.000000 58.495674 63.351254
v 60.000000 59.622731 56.717868
v 60.000000 60.000000 0.000000
v 60.000000 60.000000 50.000000
vt -11.000000 0.000000 0.000000
vt -11.000000 0.673198 0.000000
vt -11.000000 1.346397 0.000000
vt -11.000000 2.019595 0.000000
vt -11.000000 2.692794 0.000000
vt -11.000000 3.365992 0.000000
vt -11.000000 4.039190 0.000000
vt -11.000000 4.712389 0.000000
vt -11.000000 5.385588 0.000000
vt -11.000000 6.058786 0.000000
vt -11.000000 6.731984 0.000000
vt -11.000000 7.405183 0.000000
vt -11.000000 8.078381 0.000000
vt -11.000000 8.751579 0.000000
vt -11.000000 9.424778 0.000000
vt -12.000000 9.424778 0.000000
vt -12.000000 8.751579 0.000000
vt -12.000000 8.078381 0.000000
vt -12.000000 7.405183 0.000000
vt -12.000000 6.731984 0.000000
vt -12.000000 6.058786 0.000000
vt -12.000000 5.385588 0.000000
vt -12.000000 4.712389 0.000000
vt -12.000000 4.039190 0.000000
vt -12.000000 3.365992 0.000000
vt -12.000000 2.692794 0.000000
vt -12.000000 2.019595 0.000000
vt -12.000000 1.346397 0.000000
vt -12.000000 0.673198 0.000000
vt -12.000000 0.000000 0.000000
vt -1.000000 9.424778 0.000000
vt -1.000000 8.751579 0.000000
vt -1.000000 8.078381 0.000000
vt -1.000000 7.405183 0.000000
vt -1.000000 6.731984 0.000000
vt -1.000000 6.058786 0.000000
vt -1.000000 5.385588 0.000000
vt -1.000000 4.712389 0.000000
vt -1.000000 4.039190 0.000000
vt -1.000000 3.365992 0.000000
vt -1.000000 2.692794 0.000000
vt -1.000000 2.019595 0.000000
vt -1.000000 1.346397 0.000000
vt -1.000000 0.673198 0.000000
vt -1.000000 0.000000 0.000000
vt -0.000000 0.000000 0.000000
vt -0.000000 0.673198 0.000000
vt -0.000000 1.346397 0.000000
vt -0.000000 2.019595 0.000000
vt -0.000000 2.692794 0.000000
vt -0.000000 3.365992 0.000000
vt -0.000000 4.039190 0.000000
vt -0.000000 4.712389 0.000000
vt -0.000000 5.385588 0.000000
vt -0.000000 6.058786 0.000000
vt -0.000000 6.731984 0.000000
vt -0.000000 7.405183 0.000000
vt -0.000000 8.078381 0.000000
vt -0.000000 8.751579 0.000000
vt -0.000000 9.424778 0.000000
vt 13.000000 5.000000 0.000000
vt 12.962274 5.671787 0.000000
vt 12.849567 6.335125 0.000000
vt 12.663300 6.981674 0.000000
vt 12.405813 7.603302 0.000000
vt 12.080345 8.192192 0.000000
vt 11.690989 8.740939 0.000000
vt 11.242640 9.242640 0.000000
vt 10.740939 9.690989 0.000000
vt 10.192192 10.080345 0.000000
vt 9.603302 10.405813 0.000000
vt 8.981674 10.663300 0.000000
vt 8.335126 10.849567 0.000000
vt 7.671787 10.962274 0.000000
vt 7.000000 11.000000 0.000000
vt 0.000000 11.000000 0.000000
vt 0.000000 0.000000 0.000000
vt 13.000000 0.000000 0.000000
vt 12.000000 5.000000 0.000000
vt 11.962274 5.671787 0.000000
vt 11.849567 6.335125 0.000000
vt 11.663300 6.981674 0.000000
vt 11.405813 7.603302 0.000000
vt 11.080345 8.192192 0.000000
vt 10.690989 8.740939 0.000000
vt 10.242640 9.242640 0.000000
vt 9.740939 9.690989 0.000000
vt 9.192192 10.080345 0.000000
vt 8.603302 10.405813 0.000000
vt 7.981674 10.663300 0.000000
vt 7.335125 10.849567 0.000000
vt 6.671787 10.962274 0.000000
vt 6.000000 11.000000 0.000000
vt 0.000000 11.000000 0.000000
vt 0.000000 1.000000 0.000000
vt 12.000000 1.000000 0.000000
vt 6.000000 0.500000 0.000000
vt 5.000000 0.500000 0.000000
vt 5.000000 -5.500000 0.000000
vt -5.000000 -5.500000 0.000000
vt -5.000000 0.500000 0.000000
vt -6.000000 0.500000 0.000000
vt -6.000000 -6.500000 0.000000
vt 6.000000 -6.500000 0.000000
vt 5.000000 6.000000 0.000000
vt -5.000000 6.000000 0.000000
vt -5.000000 -6.000000 0.000000
vt 5.000000 -6.000000 0.000000
vt 6.000000 11.000000 0.000000
vt 5.328213 10.962274 0.000000
vt 4.664875 10.849567 0.000000
vt 4.018326 10.663300 0.000000
vt 3.396698 10.405813 0.000000
vt 2.807807 10.080345 0.000000
vt 2.259061 9.690989 0.000000
vt 1.757359 9.242640 0.000000
vt 1.309011 8.740939 0.000000
vt 0.919655 8.192192 0.000000
vt 0.594187 7.603302 0.000000
vt 0.336700 6.981674 0.000000
vt 0.150433 6.335125 0.000000
vt 0.037727 5.671787 0.000000
vt 0.000000 5.000000 0.000000
vt 0.000000 1.000000 0.000000
vt 12.000000 1.000000 0.000000
vt 12.000000 11.000000 0.000000
vt 0.000000 1.000000 0.000000
vt 10.000000 1.000000 0.000000
vt 10.000000 11.000000 0.000000
vt 0.000000 11.000000 0.000000
vt 1.000000 5.000000 0.000000
vt 0.000000 5.000000 0.000000
vt 0.000000 0.000000 0.000000
vt 12.000000 0.000000 0.000000
vt 12.000000 5.000000 0.000000
vt 11.000000 5.000000 0.000000
vt 11.000000 1.000000 0.000000
vt 1.000000 1.000000 0.000000
vt 0.000000 0.000000 0.000000
vt 12.000000 0.000000 0.000000
vt 12.000000 11.000000 0.000000
vt 0.000000 11.000000 0.000000
vt 6.000000 11.000000 0.000000
vt 5.328213 10.962274 0.000000
vt 4.664875 10.849567 0.000000
vt 4.018326 10.663300 0.000000
vt 3.396698 10.405813 0.000000
vt 2.807807 10.080345 0.000000
vt 2.259061 9.690989 0.000000
vt 1.757359 9.242640 0.000000
vt 1.309011 8.740939 0.000000
vt 0.919655 8.192192 0.000000
vt 0.594187 7.603302 0.000000
vt 0.336700 6.981674 0.000000
vt 0.150433 6.335125 0.000000
vt 0.037727 5.671787 0.000000
vt 0.000000 5.000000 0.000000
vt 0.000000 0.000000 0.000000
vt 13.000000 0.000000 0.000000
vt 13.000000 11.000000 0.000000
vt 6.000000 -6.500000 0.000000
vt 6.000000 6.500000 0.000000
vt -6.000000 6.500000 0.000000
vt -6.000000 -6.500000 0.000000
vn 0.000000 0.000000 0.100000
vn 0.000000 0.011196 0.099371
vn 0.000000 0.022252 0.097493
vn 0.000000 0.033028 0.094388
vn 0.000000 0.043388 0.090097
vn 0.000000 0.053203 0.084672
vn 0.000000 0.062349 0.078183
vn 0.000000 0.070711 0.070711
vn 0.000000 0.078183 0.062349
vn 0.000000 0.084672 0.053203
vn 0.000000 0.090097 0.043388
vn 0.000000 0.094388 0.033028
vn 0.000000 0.097493 0.022252
vn 0.000000 0.099371 0.011196
vn 0.000000 0.100000 0.000000
vn 0.000000 0.100000 0.000000
vn 0.000000 0.099371 0.011196
vn 0.000000 0.097493 0.022252
vn 0.000000 0.094388 0.033028
vn 0.000000 0.090097 0.043388
vn 0.000000 0.084672 0.053203
vn 0.000000 0.078183 0.062349
vn 0.000000 0.070711 0.070711
vn 0.000000 0.062349 0.078183
vn 0.000000 0.053203 0.084672
vn 0.000000 0.043388 0.090097
vn 0.000000 0.033028 0.094388
vn 0.000000 0.022252 0.097493
vn 0.000000 0.011196 0.099371
vn 0.000000 0.000000 0.100000
vn 0.000000 0.100000 0.000000
vn 0.000000 0.099371 0.011196
vn 0.000000 0.097493 0.022252
vn 0.000000 0.094388 0.033028
vn 0.000000 0.090097 0.043388
vn 0.000000 0.084672 0.053203
vn 0.000000 0.078183 0.062349
vn 0.000000 0.070711 0.070711
vn 0.000000 0.062349 0.078183
vn 0.000000 0.053203 0.084672
vn 0.000000 0.043388 0.090097
vn 0.000000 0.033028 0.094388
vn 0.000000 0.022252 0.097493
vn 0.000000 0.011196 0.099371
vn 0.000000 0.000000 0.100000
vn 0.000000 0.000000 0.100000
vn 0.000000 0.011196 0.099371
vn 0.000000 0.022252 0.097493
vn 0.000000 0.033028 0.094388
vn 0.000000 0.043388 0.090097
vn 0.000000 0.053203 0.084672
vn 0.000000 0.062349 0.078183
vn 0.000000 0.070711 0.070711
vn 0.000000 0.078183 0.062349
vn 0.000000 0.084672 0.053203
vn 0.000000 0.090097 0.043388
vn 0.000000 0.094388 0.033028
vn 0.000000 0.097493 0.022252
vn 0.000000 0.099371 0.011196
vn 0.000000 0.100000 0.000000
vn 0.100000 0.000000 0.000000
vn 0.100000 0.000000 0.000000
vn 0.100000 0.000000 0.000000
vn 0.100000 0.000000 0.000000
vn 0.100000 0.000000 0.000000
vn 0.100000 0.000000 0.000000
vn 0.100000 0.000000 0.000000
vn 0.100000 0.000000 0.000000
vn 0.100000 0.000000 0.000000
vn 0.100000 0.000000 0.000000
vn 0.100000 0.000000 0.000000
vn 0.100000 0.000000 0.000000
vn 0.100000 0.000000 0.000000
vn 0.100000 0.000000 0.000000
vn 0.100000 0.000000 0.000000
vn 0.100000 0.000000 0.000000
vn 0.100000 0.000000 0.000000
vn 0.100000 0.000000 0.000000
vn 0.100000 0.000000 0.000000
vn 0.100000 0.000000 0.000000
vn 0.100000 0.000000 0.000000
vn 0.100000 0.000000 0.000000
vn 0.100000 0.000000 0.000000
vn 0.100000 0.000000 0.000000
vn 0.100000 0.000000 0.000000
vn 0.100000 0.000000 0.000000
vn 0.100000 0.000000 0.000000
vn 0.100000 0.000000 0.000000
vn 0.100000 0.000000 0.000000
vn 0.100000 0.000000 0.000000
vn 0.100000 0.000000 0.000000
vn 0.100000 0.000000 0.000000
vn 0.100000 0.000000 0.000000
vn 0.100000 0.000000 0.000000
vn 0.100000 0.000000 0.000000
vn 0.100000 0.000000 0.000000
vn 0.000000 0.000000 0.100000
vn 0.000000 0.000000 0.100000
vn 0.000000 0.000000 0.100000
vn 0.000000 0.000000 0.100000
vn 0.000000 0.000000 0.100000
vn 0.000000 0.000000 0.100000
vn 0.000000 0.000000 0.100000
vn 0.000000 0.000000 0.100000
vn 0.000000 0.000000 0.100000
vn 0.000000 0.000000 0.100000
vn 0.000000 0.000000 0.100000
vn 0.000000 0.000000 0.100000
vn -0.100000 0.000000 0.000000
vn -0.100000 0.000000 0.000000
vn -0.100000 0.000000 0.000000
vn -0.100000 0.000000 0.000000
vn -0.100000 0.000000 0.000000
vn -0.100000 0.000000 0.000000
vn -0.100000 0.000000 0.000000
vn -0.100000 0.000000 0.000000
vn -0.100000 0.000000 0.000000
vn -0.100000 0.000000 0.000000
vn -0.100000 0.000000 0.000000
vn -0.100000 0.000000 0.000000
vn -0.100000 0.000000 0.000000
vn -0.100000 0.000000 0.000000
vn -0.100000 0.000000 0.000000
vn -0.100000 0.000000 0.000000
vn -0.100000 0.000000 0.000000
vn -0.100000 0.000000 0.000000
vn 0.000000 0.100000 0.000000
vn 0.000000 0.100000 0.000000
vn 0.000000 0.100000 0.000000
vn 0.000000 0.100000 0.000000
vn 0.000000 0.100000 0.000000
vn 0.000000 0.100000 0.000000
vn 0.000000 0.100000 0.000000
vn 0.000000 0.100000 0.000000
vn 0.000000 0.100000 0.000000
vn 0.000000 0.100000 0.000000
vn 0.000000 0.100000 0.000000
vn 0.000000 0.100000 0.000000
vn 0.000000 -0.100000 0.000000
vn 0.000000 -0.100000 0.000000
vn 0.000000 -0.100000 0.000000
vn 0.000000 -0.100000 0.000000
vn -0.100000 0.000000 0.000000
vn -0.100000 0.000000 0.000000
vn -0.100000 0.000000 0.000000
vn -0.100000 0.000000 0.000000
vn -0.100000 0.000000 0.000000
vn -0.100000 0.000000 0.000000
vn -0.100000 0.000000 0.000000
vn -0.100000 0.000000 0.000000
vn -0.100000 0.000000 0.000000
vn -0.100000 0.000000 0.000000
vn -0.100000 0.000000 0.000000
vn -0.100000 0.000000 0.000000
vn -0.100000 0.000000 0.000000
vn -0.100000 0.000000 0.000000
vn -0.100000 0.000000 0.000000
vn -0.100000 0.000000 0.000000
vn -0.100000 0.000000 0.000000
vn -0.100000 0.000000 0.000000
vn 0.000000 0.000000 -0.100000
vn 0.000000 0.000000 -0.100000
vn 0.000000 0.000000 -0.100000
vn 0.000000 0.000000 -0.100000
usemtl 131,88,197
f 3/30/30 21/1/1 4/29/29
f 4/29/29 21/1/1 22/2/2
f 4/29/29 22/2/2 23/3/3
f 4/29/29 23/3/3 5/28/28
f 5/28/28 23/3/3 24/4/4
f 5/28/28 24/4/4 6/27/27
f 6/27/27 24/4/4 25/5/5
f 6/27/27 25/5/5 7/26/26
f 7/26/26 25/5/5 26/6/6
f 7/26/26 26/6/6 8/25/25
f 8/25/25 26/6/6 27/7/7
f 8/25/25 27/7/7 9/24/24
f 9/24/24 27/7/7 28/8/8
f 9/24/24 28/8/8 10/23/23
f 10/23/23 28/8/8 29/9/9
f 10/23/23 29/9/9 11/22/22
f 11/22/22 29/9/9 30/10/10
f 11/22/22 30/10/10 12/21/21
f 12/21/21 30/10/10 31/11/11
f 12/21/21 31/11/11 13/20/20
f 13/20/20 31/11/11 32/12/12
f 13/20/20 32/12/12 14/19/19
f 14/19/19 32/12/12 33/13/13
f 14/19/19 33/13/13 15/18/18
f 15/18/18 33/13/13 34/14/14
f 15/18/18 34/14/14 16/17/17
f 16/17/17 34/14/14 36/15/15
f 16/17/17 36/15/15 18/16/16
f 54/31/31 52/32/32 72/60/60
f 72/60/60 52/32/32 70/59/59
f 70/59/59 52/32/32 51/33/33
f 70/59/59 51/33/33 69/58/58
f 69/58/58 51/33/33 50/34/34
f 69/58/58 50/34/34 68/57/57
f 68/57/57 50/34/34 49/35/35
f 68/57/57 49/35/35 67/56/56
f 67/56/56 49/35/35 48/36/36
f 67/56/56 48/36/36 66/55/55
f 66/55/55 48/36/36 47/37/37
f 66/55/55 47/37/37 65/54/54
f 65/54/54 47/37/37 46/38/38
f 65/54/54 46/38/38 64/53/53
f 64/53/53 46/38/38 45/39/39
f 64/53/53 45/39/39 63/52/52
f 63/52/52 45/39/39 44/40/40
f 63/52/52 44/40/40 62/51/51
f 62/51/51 44/40/40 43/41/41
f 62/51/51 43/41/41 61/50/50
f 61/50/50 43/41/41 42/42/42
f 61/50/50 42/42/42 60/49/49
f 60/49/49 42/42/42 41/43/43
f 60/49/49 41/43/43 59/48/48
f 59/48/48 41/43/43 40/44/44
f 59/48/48 40/44/44 58/47/47
f 58/47/47 40/44/44 57/46/46
f 57/46/46 40/44/44 39/45/45
f 70/62/62 57/75/75 72/61/61
f 72/61/61 57/75/75 55/77/77
f 72/61/61 55/77/77 71/78/78
f 70/62/62 69/63/63 57/75/75
f 57/75/75 69/63/63 68/64/64
f 57/75/75 68/64/64 67/65/65
f 67/65/65 66/66/66 57/75/75
f 57/75/75 66/66/66 65/67/67
f 57/75/75 65/67/67 64/68/68
f 64/68/68 63/69/69 57/75/75
f 57/75/75 63/69/69 62/70/70
f 57/75/75 62/70/70 61/71/71
f 61/71/71 60/72/72 57/75/75
f 57/75/75 60/72/72 59/73/73
f 57/75/75 59/73/73 58/74/74
f 57/75/75 56/76/76 55/77/77
f 35/96/96 36/79/79 19/95/95
f 19/95/95 36/79/79 34/80/80
f 19/95/95 34/80/80 33/81/81
f 33/81/81 32/82/82 19/95/95
f 19/95/95 32/82/82 31/83/83
f 19/95/95 31/83/83 30/84/84
f 30/84/84 29/85/85 19/95/95
f 19/95/95 29/85/85 28/86/86
f 19/95/95 28/86/86 27/87/87
f 27/87/87 26/88/88 19/95/95
f 19/95/95 26/88/88 25/89/89
f 19/95/95 25/89/89 24/90/90
f 24/90/90 23/91/91 19/95/95
f 19/95/95 23/91/91 22/92/92
f 19/95/95 22/92/92 21/93/93
f 21/93/93 20/94/94 19/95/95
f 39/98/98 38/99/99 57/97/97
f 57/97/97 38/99/99 56/104/104
f 56/104/104 38/99/99 20/100/100
f 56/104/104 20/100/100 2/103/103
f 2/103/103 20/100/100 3/102/102
f 3/102/102 20/100/100 21/101/101
f 53/105/105 35/106/106 37/108/108
f 37/108/108 35/106/106 19/107/107
f 38/126/126 39/109/109 37/125/125
f 37/125/125 39/109/109 40/110/110
f 37/125/125 40/110/110 41/111/111
f 41/111/111 42/112/112 37/125/125
f 37/125/125 42/112/112 43/113/113
f 37/125/125 43/113/113 44/114/114
f 44/114/114 45/115/115 37/125/125
f 37/125/125 45/115/115 46/116/116
f 37/125/125 46/116/116 47/117/117
f 47/117/117 48/118/118 37/125/125
f 37/125/125 48/118/118 49/119/119
f 37/125/125 49/119/119 50/120/120
f 50/120/120 51/121/121 37/125/125
f 37/125/125 51/121/121 52/122/122
f 37/125/125 52/122/122 54/123/123
f 54/123/123 53/124/124 37/125/125
f 37/127/127 19/128/128 38/130/130
f 38/130/130 19/128/128 20/129/129
f 54/131/131 72/132/132 53/138/138
f 53/138/138 72/132/132 71/133/133
f 53/138/138 71/133/133 17/134/134
f 53/138/138 17/134/134 35/137/137
f 35/137/137 17/134/134 18/135/135
f 35/137/137 18/135/135 36/136/136
f 1/139/139 55/140/140 2/142/142
f 2/142/142 55/140/140 56/141/141
f 4/144/144 5/145/145 3/143/143
f 3/143/143 5/145/145 6/146/146
f 3/143/143 6/146/146 7/147/147
f 7/147/147 8/148/148 3/143/143
f 3/143/143 8/148/148 9/149/149
f 3/143/143 9/149/149 10/150/150
f 10/150/150 11/151/151 3/143/143
f 3/143/143 11/151/151 12/152/152
f 3/143/143 12/152/152 13/153/153
f 13/153/153 14/154/154 3/143/143
f 3/143/143 14/154/154 15/155/155
f 3/143/143 15/155/155 16/156/156
f 16/156/156 18/157/157 3/143/143
f 3/143/143 18/157/157 1/159/159
f 3/143/143 1/159/159 2/160/160
f 18/157/157 17/158/158 1/159/159
f 17/162/162 71/163/163 1/161/161
f 1/161/161 71/163/163 55/164/164

# 72 vertices
# 164 texture params
# 164 normals
# 140 facets

# 1 groups
